<svg height="512" viewBox="0 0 64 64" width="512" xmlns="http://www.w3.org/2000/svg"><g id="money-economy-business-finance-calculator-book"><path d="m12 9h11v2h-11z"/><path d="m25 9h4v2h-4z"/><path d="m12 13h17v2h-17z"/><path d="m12 17h13v2h-13z"/><path d="m27 17h2v2h-2z"/><path d="m12 21h17v2h-17z"/><path d="m35 9h7v2h-7z"/><path d="m35 13h7v2h-7z"/><path d="m35 17h7v2h-7z"/><path d="m35 21h17v2h-17z"/><path d="m35 25h13v2h-13z"/><path d="m12 25h17v2h-17z"/><path d="m61 31h-1v-24a1 1 0 0 0 -1-1h-3v-1a1 1 0 0 0 -1-1h-3v-1a1 1 0 0 0 -1-1h-6a1 1 0 0 0 -1 1v1h-8a4.994 4.994 0 0 0 -4 2.03 4.994 4.994 0 0 0 -4-2.03h-19a1 1 0 0 0 -1 1v1h-3a1 1 0 0 0 -1 1v22.18a3.01 3.01 0 0 0 -2 2.82v27a3.009 3.009 0 0 0 3 3h25a2.986 2.986 0 0 0 2.22-1h28.78a1 1 0 0 0 1-1v-28a1 1 0 0 0 -1-1zm-5-23h2v23h-2zm-10-4h4v10.59l-1.29-1.3a1.014 1.014 0 0 0 -1.42 0l-1.29 1.3zm-40 4h2v21h-2zm25 51a1 1 0 0 1 -1 1h-25a1 1 0 0 1 -1-1v-27a1 1 0 0 1 1-1h25a1 1 0 0 1 1 1zm-1-30h-20v-23h18a3.009 3.009 0 0 1 3 3v2h2v-2a3.009 3.009 0 0 1 3-3h8v11a.987.987 0 0 0 .62.92 1 1 0 0 0 1.09-.21l2.29-2.3 2.29 2.3a1.007 1.007 0 0 0 .71.29.838.838 0 0 0 .38-.08.987.987 0 0 0 .62-.92v-11h2v25h-21.18a3.01 3.01 0 0 0 -2.82-2zm7 26a9 9 0 0 0 0-18 8.889 8.889 0 0 0 -4 .95v-1.95h19.1a5.01 5.01 0 0 0 3.9 3.9v12.2a5.01 5.01 0 0 0 -3.9 3.9h-19.1v-1.95a8.952 8.952 0 0 0 4 .95zm-4-3.28v-11.43a6.864 6.864 0 0 1 4-1.29 7 7 0 1 1 -4 12.72zm27 7.28h-27v-1h20a1 1 0 0 0 1-1 3.009 3.009 0 0 1 3-3 1 1 0 0 0 1-1v-14a1 1 0 0 0 -1-1 3.009 3.009 0 0 1 -3-3 1 1 0 0 0 -1-1h-20v-1h27z"/><path d="m29 32h-23a1 1 0 0 0 -1 1v7a1 1 0 0 0 1 1h23a1 1 0 0 0 1-1v-7a1 1 0 0 0 -1-1zm-1 7h-21v-5h21z"/><path d="m11 43h-5a1 1 0 0 0 -1 1v5a1 1 0 0 0 1 1h5a1 1 0 0 0 1-1v-5a1 1 0 0 0 -1-1zm-1 5h-3v-3h3z"/><path d="m20 43h-5a1 1 0 0 0 -1 1v5a1 1 0 0 0 1 1h5a1 1 0 0 0 1-1v-5a1 1 0 0 0 -1-1zm-1 5h-3v-3h3z"/><path d="m11 51h-5a1 1 0 0 0 -1 1v5a1 1 0 0 0 1 1h5a1 1 0 0 0 1-1v-5a1 1 0 0 0 -1-1zm-1 5h-3v-3h3z"/><path d="m20 51h-5a1 1 0 0 0 -1 1v5a1 1 0 0 0 1 1h5a1 1 0 0 0 1-1v-5a1 1 0 0 0 -1-1zm-1 5h-3v-3h3z"/><path d="m29 43h-5a1 1 0 0 0 -1 1v13a1 1 0 0 0 1 1h5a1 1 0 0 0 1-1v-13a1 1 0 0 0 -1-1zm-1 13h-3v-11h3z"/><path d="m24 36h2v2h-2z"/><path d="m20 36h2v2h-2z"/></g></svg>