<?xml version="1.0" encoding="UTF-8"?>
<svg xmlns="http://www.w3.org/2000/svg" id="Outline" viewBox="0 0 512 512" width="512" height="512"><path d="M80,80h80a8,8,0,0,0,0-16H80a8,8,0,0,0,0,16Z"/><path d="M216,104a8,8,0,0,0-8-8H80a8,8,0,0,0,0,16H208A8,8,0,0,0,216,104Z"/><path d="M160,144H96a8,8,0,0,0-8,8v64a8,8,0,0,0,8,8h64a8,8,0,0,0,8-8V152A8,8,0,0,0,160,144Zm-19.314,16L104,196.686V160Zm-25.372,48L152,171.314V208Z"/><path d="M184,152a8,8,0,0,0,8,8H384a8,8,0,0,0,0-16H192A8,8,0,0,0,184,152Z"/><path d="M384,176H192a8,8,0,0,0,0,16H384a8,8,0,0,0,0-16Z"/><path d="M192,224H304a8,8,0,0,0,0-16H192a8,8,0,0,0,0,16Z"/><path d="M160,256H96a8,8,0,0,0-8,8v64a8,8,0,0,0,8,8h64a8,8,0,0,0,8-8V264A8,8,0,0,0,160,256Zm-19.314,16L104,308.686V272Zm-25.372,48L152,283.314V320Z"/><path d="M384,256H192a8,8,0,0,0,0,16H384a8,8,0,0,0,0-16Z"/><path d="M384,288H192a8,8,0,0,0,0,16H384a8,8,0,0,0,0-16Z"/><path d="M192,336h64a8,8,0,0,0,0-16H192a8,8,0,0,0,0,16Z"/><path d="M160,368H96a8,8,0,0,0-8,8v64a8,8,0,0,0,8,8h64a8,8,0,0,0,8-8V376A8,8,0,0,0,160,368Zm-8,64H104V384h48Z"/><path d="M192,384h80a8,8,0,0,0,0-16H192a8,8,0,0,0,0,16Z"/><path d="M272,400H192a8,8,0,0,0,0,16h80a8,8,0,0,0,0-16Z"/><path d="M272,432H192a8,8,0,0,0,0,16h80a8,8,0,0,0,0-16Z"/><path d="M464,320H440V56a40.045,40.045,0,0,0-40-40H48a8,8,0,0,0-8,8V488a8,8,0,0,0,8,8H464a8,8,0,0,0,8-8V328A8,8,0,0,0,464,320Zm-8,32H416V336h40Zm-104,0H312V336h40Zm16-16h32v73.052l-11.562-7.708a8,8,0,0,0-8.876,0L368,409.052ZM424,56V80H392V48A31.8,31.8,0,0,0,387.7,32H400A24.028,24.028,0,0,1,424,56ZM56,32H360a16.019,16.019,0,0,1,16,16V88a8,8,0,0,0,8,8h40V320H304a8,8,0,0,0-8,8V480H56ZM312,480V368h40v56a8,8,0,0,0,12.438,6.656L384,417.615l19.562,13.041A8,8,0,0,0,416,424V368h40V480Z"/><path d="M400,448H368a8,8,0,0,0,0,16h32a8,8,0,0,0,0-16Z"/></svg>
