<?xml version="1.0" standalone="no"?>
<!DOCTYPE svg PUBLIC "-//W3C//DTD SVG 20010904//EN"
 "http://www.w3.org/TR/2001/REC-SVG-20010904/DTD/svg10.dtd">
<svg version="1.0" xmlns="http://www.w3.org/2000/svg"
 width="512.000000pt" height="512.000000pt" viewBox="0 0 512.000000 512.000000"
 preserveAspectRatio="xMidYMid meet">

<g transform="translate(0.000000,512.000000) scale(0.100000,-0.100000)"
fill="#000000" stroke="none">
<path d="M2334 5110 c-420 -44 -820 -189 -1181 -429 -129 -85 -249 -177 -331
-254 l-52 -50 0 242 0 241 -255 0 -255 0 0 -765 0 -765 765 0 765 0 0 255 0
255 -405 0 c-223 0 -405 3 -405 8 0 15 189 209 272 279 250 212 579 372 902
438 528 108 1080 3 1526 -289 348 -228 619 -559 766 -935 20 -53 38 -85 46
-83 33 7 454 165 462 173 24 23 -134 347 -264 541 -410 613 -1048 1015 -1785
1124 -120 18 -458 26 -571 14z"/>
<path d="M401 1781 c-129 -48 -236 -92 -238 -98 -2 -6 12 -51 32 -100 128
-308 343 -625 581 -853 406 -390 910 -633 1474 -711 141 -20 507 -17 650 4
535 80 1026 313 1383 655 l67 65 0 -241 0 -242 255 0 255 0 0 765 0 765 -765
0 -765 0 0 -255 0 -255 405 0 c392 0 405 -1 396 -19 -19 -35 -205 -222 -285
-287 -410 -331 -931 -496 -1433 -456 -357 29 -691 141 -971 325 -350 230 -629
570 -767 937 -16 41 -31 78 -34 81 -3 4 -111 -32 -240 -80z"/>
</g>
</svg>
